mtllib materials.mtl
v 0.1688567 0.02718091 -0.06952024
v 0.1713012 0.03319824 0.0603174
v 0.1713369 0.04320908 0.05985278
v 0.1688923 0.03719175 -0.06998488
v -0.1710811 0.0286845 -0.06318963
v -0.1710454 0.03869534 -0.06365427
v -0.1686009 0.04471266 0.06618339
v -0.1686365 0.03470182 0.06664801
v 0.1709251 0.03227234 0.04034233
v 0.1509288 0.03236091 0.04071474
v 0.1506444 -0.04749537 0.04442149
v 0.1706407 -0.04758394 0.04404908
v 0.1713012 0.03319824 0.06031734
v 0.1710168 -0.04665804 0.06402409
v 0.1510205 -0.04656947 0.0643965
v 0.1513049 0.03328681 0.06068975
v 0.1485766 -0.05258715 -0.06544149
v 0.168573 -0.05267537 -0.06581387
v 0.1688567 0.02718091 -0.06952024
v 0.1488604 0.02726924 -0.06914786
v 0.1489527 -0.05166137 -0.04546645
v 0.1492364 0.02819502 -0.04917282
v 0.1692327 0.02810657 -0.0495452
v 0.1689491 -0.05174971 -0.04583883
v -0.1510847 0.02859616 -0.06356201
v -0.1710811 0.0286845 -0.06318963
v -0.1713651 -0.05117178 -0.05948278
v -0.1513688 -0.05126023 -0.05985516
v -0.1507086 0.02952206 -0.043587
v -0.1509927 -0.05033422 -0.03988016
v -0.170989 -0.05024576 -0.03950778
v -0.170705 0.0296104 -0.04321462
v -0.1490162 0.03368759 0.04630059
v -0.1690126 0.03377616 0.04667294
v -0.1692969 -0.04608023 0.05037904
v -0.1493005 -0.04616868 0.05000669
v -0.1486401 0.03461337 0.06627566
v -0.1489245 -0.04524302 0.06998169
v -0.1689208 -0.04515445 0.0703541
v -0.1686365 0.03470182 0.06664801
vn 0.9998169 -0.004423357 -0.01861941
vn -0.9998169 0.004422843 0.01861943
vn -0.003554782 -0.9989184 0.04636204
vn 0.003554951 0.9989184 -0.04636181
vn -0.01880434 -0.04628922 -0.9987511
vn 0.01880433 0.04628625 0.9987512
vn -0.01880572 -0.04629312 -0.9987509
vn 0.01880572 0.04629299 0.9987509
vn 0.00355782 0.9989181 -0.04636801
vn -0.00356109 -0.998918 0.04636974
vn 0.9998168 -0.004425515 -0.01862083
vn -0.9998168 0.004425433 0.01862082
vn -0.01880337 -0.04628813 -0.9987512
vn 0.01880337 0.04628826 0.9987512
vn -0.003548471 -0.9989184 0.04636255
vn 0.003551805 0.9989185 -0.04636094
vn -0.9998169 0.004415945 0.01861864
vn 0.9998169 -0.004415864 -0.01861865
vn -0.01880419 -0.04629398 -0.9987509
vn 0.01880419 0.04629385 0.9987509
vn 0.003553014 0.9989181 -0.04636877
vn -0.003556285 -0.998918 0.0463705
vn 0.9998169 -0.004420659 -0.01861944
vn -0.9998169 0.004420577 0.01861943
vn -0.01880367 -0.04628454 -0.9987513
vn 0.01880367 0.04628441 0.9987513
vn 0.003556307 0.9989185 -0.04635937
vn -0.003559578 -0.9989185 0.04636111
vn 0.9998169 -0.00442374 -0.0186184
vn -0.9998169 0.004423658 0.01861839
vt 0.1370173 0.1332413
vt 0.1481362 0.1265056
vt 0.1486554 0.1273628
vt 0.1375365 0.1340985
vt -0.1370173 0.1332412
vt -0.1375366 0.1340984
vt -0.1486555 0.1273627
vt -0.1481362 0.1265055
vt 0.05043887 -8.298225E-05
vt 0.04027047 -0.03252684
vt 0.05267548 -0.03641475
vt 0.06284387 -0.003970896
vt -0.05043882 -8.300451E-05
vt -0.06284382 -0.003970922
vt -0.05267543 -0.03641478
vt -0.04027042 -0.03252686
vt -0.1573755 0.09831644
vt -0.1582657 0.09877695
vt -0.1738891 0.06857914
vt -0.172999 0.06811863
vt 0.1573758 0.09831639
vt 0.1729992 0.06811858
vt 0.1738893 0.06857909
vt 0.1582659 0.0987769
vt -0.1573753 0.09831637
vt -0.1582943 0.09654003
vt -0.151194 0.09286653
vt -0.150275 0.09464286
vt 0.1573753 0.09831636
vt 0.150275 0.09464286
vt 0.1511941 0.09286653
vt 0.1582943 0.09654003
vt -0.06093628 -0.003373499
vt -0.06284475 -0.003971632
vt -0.06224661 -0.005880096
vt -0.06033815 -0.005281963
vt 0.06093638 -0.00337413
vt 0.06033825 -0.005282594
vt 0.06224672 -0.005880726
vt 0.06284485 -0.003972262
vt 0.1464251 0.1275425
vt 0.1422831 0.1207049
vt 0.1439937 0.1196687
vt 0.1481357 0.1265062
vt -0.1464251 0.1275425
vt -0.1481358 0.1265062
vt -0.1439938 0.1196687
vt -0.1422831 0.1207049
vt -0.1511943 0.0928667
vt -0.1502753 0.09464305
vt -0.1573756 0.09831648
vt -0.1582946 0.09654014
vt 0.1511943 0.0928667
vt 0.1582946 0.09654014
vt 0.1573756 0.09831648
vt 0.1502753 0.09464304
vt 0.04984119 -0.00199031
vt 0.05174965 -0.00258845
vt 0.05234779 -0.0006799872
vt 0.05043933 -8.184737E-05
vt -0.04984071 -0.001990859
vt -0.05043885 -8.239821E-05
vt -0.05234731 -0.0006805419
vt -0.05174917 -0.002589003
vt -0.1328761 0.1264026
vt -0.1370182 0.1332401
vt -0.1387288 0.1322039
vt -0.1345867 0.1253664
vt 0.1328761 0.1264026
vt 0.1345867 0.1253664
vt 0.1387288 0.1322039
vt 0.1370182 0.1332401
vt -0.1720797 0.0698951
vt -0.1729987 0.06811875
vt -0.1658985 0.06444527
vt -0.1649794 0.06622161
vt 0.1720797 0.0698951
vt 0.1649794 0.06622162
vt 0.1658985 0.06444527
vt 0.1729987 0.06811874
vt -0.04087001 -0.03061832
vt -0.04277847 -0.03121646
vt -0.04218034 -0.03312492
vt -0.04027187 -0.03252679
vt 0.04087012 -0.03061896
vt 0.04027199 -0.03252742
vt 0.04218046 -0.03312556
vt 0.04277859 -0.03121709
vt 0.1370176 0.133241
vt 0.1328756 0.1264034
vt 0.1345862 0.1253672
vt 0.1387282 0.1322047
vt -0.1370176 0.133241
vt -0.1387282 0.1322047
vt -0.1345862 0.1253672
vt -0.1328756 0.1264034
vt -0.1720803 0.06989495
vt -0.1729993 0.06811861
vt -0.165899 0.06444512
vt -0.16498 0.06622146
vt 0.1720803 0.06989494
vt 0.16498 0.06622146
vt 0.165899 0.06444512
vt 0.1729993 0.06811859
vt -0.05136455 -0.03390834
vt -0.05327301 -0.03450648
vt -0.05267487 -0.03641494
vt -0.0507664 -0.0358168
vt 0.05136467 -0.03390897
vt 0.05076652 -0.03581743
vt 0.05267499 -0.03641557
vt 0.05327313 -0.03450711
vt 0.1464257 0.1275417
vt 0.1422836 0.1207042
vt 0.1439942 0.1196679
vt 0.1481363 0.1265054
vt -0.1464257 0.1275417
vt -0.1481363 0.1265054
vt -0.1439943 0.1196679
vt -0.1422836 0.1207042
o group550410507
g mesh550410507
usemtl mat19
f 4/4/1 3/3/1 2/2/1 1/1/1
f 8/8/2 7/7/2 6/6/2 5/5/2
f 5/20/5 6/19/5 4/18/5 1/17/5
f 3/24/6 7/23/6 8/22/6 2/21/6
usemtl mat18
f 2/12/3 8/11/3 5/10/3 1/9/3
f 6/16/4 7/15/4 3/14/4 4/13/4
o group1966411861
g mesh1966411861
usemtl mat19
f 12/28/7 11/27/7 10/26/7 9/25/7
f 16/32/8 15/31/8 14/30/8 13/29/8
f 10/36/9 16/35/9 13/34/9 9/33/9
f 14/40/10 15/39/10 11/38/10 12/37/10
f 13/44/11 14/43/11 12/42/11 9/41/11
usemtl mat20
f 11/48/12 15/47/12 16/46/12 10/45/12
o group183103956
g mesh183103956
usemtl mat19
f 20/52/13 19/51/13 18/50/13 17/49/13
f 18/60/15 24/59/15 21/58/15 17/57/15
f 22/64/16 23/63/16 19/62/16 20/61/16
f 19/72/18 23/71/18 24/70/18 18/69/18
usemtl mat20
f 24/56/14 23/55/14 22/54/14 21/53/14
f 21/68/17 22/67/17 20/66/17 17/65/17
o group1091922532
g mesh1091922532
usemtl mat19
f 28/76/19 27/75/19 26/74/19 25/73/19
f 26/84/21 32/83/21 29/82/21 25/81/21
f 30/88/22 31/87/22 27/86/22 28/85/22
f 27/96/24 31/95/24 32/94/24 26/93/24
usemtl mat20
f 32/80/20 31/79/20 30/78/20 29/77/20
f 29/92/23 30/91/23 28/90/23 25/89/23
o group1403296693
g mesh1403296693
usemtl mat19
f 36/100/25 35/99/25 34/98/25 33/97/25
f 40/104/26 39/103/26 38/102/26 37/101/26
f 34/108/27 40/107/27 37/106/27 33/105/27
f 38/112/28 39/111/28 35/110/28 36/109/28
f 35/120/30 39/119/30 40/118/30 34/117/30
usemtl mat20
f 37/116/29 38/115/29 36/114/29 33/113/29
